<?xml version="1.0" encoding="UTF-8"?>
<svg id="Capa_2" xmlns="http://www.w3.org/2000/svg" xmlns:xlink="http://www.w3.org/1999/xlink" viewBox="0 0 159.84 188.46">
  <defs>
    <style>
      .cls-1 {
        fill: url(#Degradado_sin_nombre_7);
      }
    </style>
    <linearGradient id="Degradado_sin_nombre_7" data-name="Degradado sin nombre 7" x1="0" y1="94.23" x2="159.84" y2="94.23" gradientUnits="userSpaceOnUse">
      <stop offset="0" stop-color="#173be8"/>
      <stop offset="1" stop-color="#0ae7f7"/>
    </linearGradient>
  </defs>
  <g id="Capa_1-2" data-name="Capa_1">
    <path class="cls-1" d="M145.43,42.14c7.96,0,14.41-6.45,14.41-14.41s-6.45-14.41-14.41-14.41-14.41,6.45-14.41,14.41c0,2.95.89,5.69,2.41,7.98l-32.3,30.77c-6.91-6.38-16.15-10.29-26.31-10.29-5.02,0-9.82.97-14.23,2.7l-12.31-32.14c4.19-2.52,7-7.1,7-12.34,0-7.96-6.45-14.41-14.41-14.41s-14.41,6.45-14.41,14.41,6.45,14.41,14.41,14.41c.94,0,1.85-.1,2.74-.27l12.44,32.47c-11.53,6.39-19.46,18.47-20,32.46h-15.14c-.11-5.69-4.74-10.27-10.45-10.27S0,87.9,0,93.68s4.68,10.46,10.46,10.46c4.81,0,8.85-3.25,10.07-7.66h15.53c.59,15.38,10.12,28.47,23.55,34.2l-10.26,29.16c-.77-.13-1.55-.21-2.35-.21-7.96,0-14.41,6.45-14.41,14.41s6.45,14.41,14.41,14.41,14.41-6.45,14.41-14.41c0-5.39-2.96-10.08-7.34-12.55l10.26-29.16c3.34.94,6.86,1.45,10.49,1.45,13.86,0,26.02-7.28,32.88-18.21l25.05,14.36c-.47,1.19-.74,2.49-.74,3.85,0,5.78,4.69,10.46,10.46,10.46s10.46-4.68,10.46-10.46-4.68-10.46-10.46-10.46c-3.34,0-6.31,1.57-8.23,4.02l-25.05-14.36c2.82-5.38,4.42-11.49,4.42-17.99,0-9.48-3.4-18.15-9.04-24.89l32.31-30.78c2.39,1.77,5.34,2.82,8.54,2.82Z"/>
  </g>
</svg>