<?xml version="1.0" encoding="UTF-8"?>
<svg id="Capa_2" xmlns="http://www.w3.org/2000/svg" xmlns:xlink="http://www.w3.org/1999/xlink" viewBox="0 0 733.44 190.11">
  <defs>
    <style>
      .cls-1 {
        fill: #1f222d;
      }

      .cls-2 {
        fill: url(#Degradado_sin_nombre_7);
      }
    </style>
    <linearGradient id="Degradado_sin_nombre_7" data-name="Degradado sin nombre 7" x1="0" y1="95.06" x2="161.25" y2="95.06" gradientUnits="userSpaceOnUse">
      <stop offset="0" stop-color="#173be8"/>
      <stop offset="1" stop-color="#0ae7f7"/>
    </linearGradient>
  </defs>
  <g id="Capa_1-2" data-name="Capa_1">
    <g>
      <path class="cls-1" d="M222.47,149.13c-7.41,0-14.01-1.27-19.8-3.8-5.8-2.53-10.35-6.23-13.67-11.11-3.31-4.87-5.07-10.76-5.26-17.68h20.9c.1,3.02.88,5.75,2.34,8.18,1.46,2.44,3.48,4.36,6.07,5.77,2.58,1.41,5.67,2.12,9.28,2.12,3.12,0,5.82-.51,8.11-1.53,2.29-1.02,4.09-2.46,5.41-4.31,1.32-1.85,1.97-4.04,1.97-6.58,0-2.92-.73-5.36-2.19-7.31-1.46-1.95-3.43-3.6-5.92-4.97-2.48-1.36-5.36-2.61-8.62-3.73-3.27-1.12-6.65-2.26-10.16-3.43-8.18-2.73-14.37-6.29-18.56-10.67-4.19-4.38-6.28-10.18-6.28-17.39,0-6.14,1.46-11.4,4.38-15.78,2.92-4.38,7.02-7.75,12.28-10.08s11.25-3.51,17.98-3.51,12.98,1.19,18.2,3.58c5.21,2.39,9.35,5.82,12.42,10.3,3.07,4.48,4.7,9.74,4.9,15.78h-21.19c-.1-2.24-.76-4.36-1.97-6.36-1.22-2-2.9-3.6-5.04-4.82-2.14-1.22-4.68-1.83-7.6-1.83-2.53-.1-4.85.29-6.94,1.17-2.1.88-3.73,2.17-4.9,3.87-1.17,1.71-1.75,3.83-1.75,6.36s.58,4.48,1.75,6.14c1.17,1.66,2.82,3.09,4.97,4.31,2.14,1.22,4.68,2.34,7.6,3.36,2.92,1.02,6.09,2.07,9.5,3.14,5.16,1.75,9.87,3.83,14.1,6.21,4.24,2.39,7.62,5.48,10.16,9.28,2.53,3.8,3.8,8.82,3.8,15.05,0,5.36-1.39,10.33-4.17,14.91-2.78,4.58-6.85,8.28-12.2,11.11-5.36,2.82-11.98,4.24-19.88,4.24Z"/>
      <path class="cls-1" d="M301.11,149.43c-7.11,0-13.47-1.63-19.07-4.9-5.6-3.26-10.04-7.79-13.3-13.59-3.27-5.8-4.9-12.45-4.9-19.95s1.63-14.44,4.9-20.24c3.26-5.8,7.72-10.33,13.37-13.59,5.65-3.26,12.03-4.9,19.15-4.9s13.45,1.63,19,4.9c5.55,3.26,9.96,7.77,13.23,13.52,3.26,5.75,4.9,12.47,4.9,20.17s-1.63,14.3-4.9,20.1c-3.27,5.8-7.7,10.33-13.3,13.59-5.6,3.26-11.96,4.9-19.07,4.9ZM301.11,132.33c3.12,0,5.97-.8,8.55-2.41,2.58-1.61,4.68-4.02,6.28-7.23s2.41-7.16,2.41-11.84-.78-8.75-2.34-11.91c-1.56-3.16-3.61-5.55-6.14-7.16-2.53-1.61-5.36-2.41-8.48-2.41s-6.14.8-8.77,2.41-4.73,4-6.28,7.16c-1.56,3.17-2.34,7.14-2.34,11.91s.75,8.62,2.27,11.84c1.51,3.22,3.58,5.63,6.21,7.23s5.5,2.41,8.62,2.41Z"/>
      <path class="cls-1" d="M387.19,74.01h-15.93v-6.72c0-2.92.68-4.99,2.05-6.21,1.36-1.22,3.6-1.83,6.72-1.83h5.99v-16.81h-9.06c-5.17,0-9.67.83-13.52,2.49-3.85,1.66-6.8,4.29-8.84,7.89-2.05,3.61-3.07,8.48-3.07,14.62v6.58h-10.08v16.52h10.08v57.15h19.73v-57.15h15.93v-16.52Z"/>
      <path class="cls-1" d="M439.52,74v16.52h-15.94v31.56c0,.21,0,.41.01.62v24.97h-19.73v-57.15h-12.72v-16.52h12.72v-.09l2.08-19.05c.14-.35.29-.7.45-1.03h17.19v20.17h15.94Z"/>
      <path class="cls-1" d="M569.22,74v16.52h-15.94v31.56c0,.21,0,.41.01.62v24.97h-19.73v-57.15h-12.72v-16.52h12.72v-.09l2.08-19.05c.14-.35.29-.7.45-1.03h17.19v20.17h15.94Z"/>
      <path class="cls-1" d="M446.77,147.67V42.44h19.73v105.23h-19.73Z"/>
      <path class="cls-1" d="M498.19,63.92c-3.61,0-6.53-1.05-8.77-3.14-2.24-2.09-3.36-4.75-3.36-7.97s1.12-5.87,3.36-7.97c2.24-2.09,5.16-3.14,8.77-3.14s6.55,1.05,8.84,3.14c2.29,2.1,3.43,4.75,3.43,7.97s-1.15,5.87-3.43,7.97c-2.29,2.1-5.24,3.14-8.84,3.14ZM488.25,147.67v-73.66h19.73v73.66h-19.73Z"/>
      <path class="cls-1" d="M579.85,147.67V42.44h19.73v42.39c2.43-3.8,5.7-6.84,9.79-9.14,4.09-2.29,8.77-3.44,14.03-3.44,6.14,0,11.3,1.29,15.49,3.87,4.19,2.58,7.36,6.34,9.5,11.25,2.14,4.92,3.22,10.94,3.22,18.05v42.24h-19.59v-40.34c0-5.94-1.22-10.5-3.65-13.67-2.44-3.17-6.24-4.75-11.4-4.75-3.31,0-6.29.78-8.92,2.34-2.63,1.56-4.7,3.8-6.21,6.72-1.51,2.92-2.26,6.53-2.26,10.82v38.88h-19.73Z"/>
      <path class="cls-1" d="M728.91,90.01c-3.02-5.41-7.26-9.72-12.72-12.93-5.46-3.22-11.84-4.82-19.15-4.82s-14.08,1.71-19.73,5.12c-5.65,3.41-10.06,8.04-13.23,13.88-3.17,5.85-4.75,12.62-4.75,20.32s1.58,13.96,4.75,19.66c3.17,5.7,7.6,10.16,13.3,13.37s12.25,4.82,19.66,4.82c5.75,0,10.94-1.05,15.57-3.14,4.63-2.09,8.57-5.02,11.84-8.77,3.26-3.75,5.53-7.92,6.8-12.5h-20.02c-1.27,2.53-3.05,4.56-5.34,6.07-2.29,1.51-5.29,2.27-8.99,2.27s-6.77-.83-9.5-2.49c-2.73-1.66-4.85-3.97-6.36-6.94-1.23-2.41-1.95-5.17-2.18-8.26h54.28c.1-1.27.17-2.51.22-3.73.05-1.22.07-2.31.07-3.29,0-7.02-1.51-13.23-4.53-18.63ZM679.27,103.53c.41-2.22,1.07-4.2,1.99-5.92,1.66-3.07,3.87-5.41,6.65-7.02s5.87-2.41,9.28-2.41c4.48,0,8.26,1.41,11.33,4.24,3.07,2.83,4.75,6.53,5.04,11.11h-34.29Z"/>
      <path class="cls-2" d="M146.71,42.51c8.03,0,14.54-6.51,14.54-14.54s-6.51-14.54-14.54-14.54-14.54,6.51-14.54,14.54c0,2.98.9,5.74,2.43,8.05l-32.59,31.04c-6.98-6.44-16.29-10.38-26.54-10.38-5.07,0-9.91.97-14.35,2.73l-12.42-32.42c4.23-2.54,7.07-7.16,7.07-12.45,0-8.03-6.51-14.54-14.54-14.54s-14.54,6.51-14.54,14.54,6.51,14.54,14.54,14.54c.95,0,1.87-.1,2.76-.27l12.55,32.76c-11.63,6.44-19.63,18.64-20.17,32.75h-15.28c-.11-5.74-4.78-10.36-10.55-10.36S0,88.68,0,94.51s4.73,10.56,10.56,10.56c4.85,0,8.92-3.27,10.16-7.73h15.66c.59,15.52,10.21,28.72,23.75,34.5l-10.35,29.42c-.77-.13-1.56-.21-2.37-.21-8.03,0-14.54,6.51-14.54,14.54s6.51,14.54,14.54,14.54,14.54-6.51,14.54-14.54c0-5.44-2.99-10.17-7.41-12.66l10.35-29.42c3.37.94,6.92,1.46,10.59,1.46,13.98,0,26.25-7.34,33.17-18.37l25.27,14.49c-.48,1.2-.75,2.51-.75,3.88,0,5.83,4.73,10.56,10.56,10.56s10.56-4.73,10.56-10.56-4.73-10.56-10.56-10.56c-3.37,0-6.37,1.59-8.3,4.05l-25.27-14.49c2.84-5.42,4.46-11.59,4.46-18.14,0-9.56-3.43-18.31-9.12-25.11l32.6-31.05c2.41,1.78,5.39,2.85,8.61,2.85Z"/>
    </g>
  </g>
</svg>