<?xml version="1.0" encoding="UTF-8"?>
<svg id="Capa_2" xmlns="http://www.w3.org/2000/svg" viewBox="0 0 727.06 188.46">
  <defs>
    <style>
      .cls-1 {
        fill: #fff;
      }
    </style>
  </defs>
  <g id="Capa_1-2" data-name="Capa_1">
    <g>
      <path class="cls-1" d="M220.54,147.83c-20.26.26-38.13-10.74-38.39-32.31h20.72c.16,5.86,3.18,11.05,8.33,13.84,6.63,3.54,18.02,2.91,22.6-3.69,2.77-3.67,2.51-10.29-.22-13.76-1.45-1.93-3.4-3.57-5.87-4.93-5.47-3.03-12.37-4.92-18.62-7.1-14.71-5.18-24.54-11.98-24.63-27.82-.32-19.34,16.29-29.38,34.34-29.12,18.28-.39,34.81,10.29,35.21,29.41h-21.01c-.3-7.42-6.91-13.16-14.49-12.89-6.94-.43-13.78,3.77-13.47,11.3,0,2.41.58,4.44,1.74,6.08,2.87,3.94,7.54,5.78,12.46,7.61,2.9,1.01,6.04,2.05,9.42,3.12,9.35,3.37,18.63,7.13,24.05,15.36,2.51,3.77,3.77,8.74,3.77,14.92-.03,19-17.11,30.56-35.93,29.99Z"/>
      <path class="cls-1" d="M298.49,148.12c-21.29.37-37.38-16.94-36.95-38.1,0-7.63,1.62-14.32,4.85-20.07,13.3-24.39,50.87-24.54,64.18-.07,3.24,5.7,4.85,12.37,4.85,19.99.46,21.27-15.58,38.61-36.95,38.25ZM298.49,131.17c16.44-.12,20.36-20.78,14.78-33.11-5.73-12.75-23.63-12.54-29.41,0-1.55,3.14-2.32,7.08-2.32,11.81-.3,11.06,5.52,21.3,16.95,21.3Z"/>
      <path class="cls-1" d="M383.82,73.37h-15.79v-6.67c-.18-9.47,7.69-7.83,14.63-7.97v-16.66c-11.5-.11-24.85-.86-31.15,10.29-2.03,3.58-3.04,8.4-3.04,14.49v6.52h-10v16.37h10v56.65h19.56v-56.65h15.79v-16.37Z"/>
      <path class="cls-1" d="M435.7,73.36v16.38h-15.8v31.29c0,.21,0,.41.01.61v24.75h-19.56v-56.65h-12.61v-16.38h12.61v-.09l2.06-18.88c.14-.35.29-.69.45-1.02h17.04v19.99h15.8Z"/>
      <path class="cls-1" d="M564.27,73.36v16.38h-15.8v31.29c0,.21,0,.41.01.61v24.75h-19.56v-56.65h-12.61v-16.38h12.61v-.09l2.06-18.88c.14-.35.29-.69.45-1.02h17.04v19.99h15.8Z"/>
      <path class="cls-1" d="M442.88,146.39V42.07h19.56v104.32h-19.56Z"/>
      <path class="cls-1" d="M493.85,63.37c-3.57,0-6.47-1.04-8.69-3.12-2.22-2.08-3.33-4.71-3.33-7.9s1.11-5.82,3.33-7.9c2.22-2.08,5.12-3.11,8.69-3.11s6.5,1.04,8.77,3.11c2.27,2.08,3.4,4.71,3.4,7.9s-1.14,5.82-3.4,7.9c-2.27,2.08-5.19,3.12-8.77,3.12ZM484,146.39v-73.02h19.56v73.02h-19.56Z"/>
      <path class="cls-1" d="M574.81,146.39V42.07h19.56v42.02c2.41-3.77,5.65-6.79,9.71-9.06,4.06-2.27,8.69-3.41,13.91-3.41,6.08,0,11.2,1.28,15.36,3.84,4.15,2.56,7.29,6.28,9.42,11.16,2.12,4.88,3.19,10.84,3.19,17.89v41.87h-19.42v-39.99c0-5.89-1.21-10.41-3.62-13.55-2.42-3.14-6.18-4.71-11.3-4.71-3.29,0-6.23.77-8.84,2.32-2.61,1.55-4.66,3.77-6.16,6.67-1.5,2.9-2.25,6.47-2.25,10.72v38.54h-19.56Z"/>
      <path class="cls-1" d="M722.57,89.23c-2.99-5.36-7.2-9.63-12.6-12.82-5.41-3.19-11.74-4.78-18.98-4.78s-13.96,1.69-19.56,5.07c-5.6,3.38-9.97,7.97-13.11,13.76-3.14,5.8-4.71,12.51-4.71,20.14s1.57,13.84,4.71,19.49c3.14,5.65,7.53,10.07,13.18,13.26s12.15,4.78,19.49,4.78c5.7,0,10.84-1.04,15.43-3.11,4.59-2.08,8.5-4.97,11.74-8.69,3.24-3.72,5.48-7.85,6.74-12.39h-19.85c-1.26,2.51-3.02,4.52-5.29,6.01-2.27,1.5-5.24,2.25-8.91,2.25s-6.71-.82-9.42-2.46c-2.71-1.64-4.81-3.93-6.3-6.88-1.22-2.39-1.93-5.12-2.16-8.19h53.81c.09-1.25.17-2.49.22-3.7.05-1.21.07-2.29.07-3.26,0-6.95-1.5-13.11-4.49-18.47ZM673.36,102.63c.4-2.2,1.06-4.16,1.98-5.87,1.64-3.04,3.84-5.36,6.59-6.95s5.82-2.39,9.2-2.39c4.44,0,8.19,1.4,11.23,4.2,3.04,2.8,4.71,6.47,5,11.01h-34Z"/>
      <path class="cls-1" d="M145.43,42.14c7.96,0,14.41-6.45,14.41-14.41s-6.45-14.41-14.41-14.41-14.41,6.45-14.41,14.41c0,2.95.89,5.69,2.41,7.98l-32.3,30.77c-6.91-6.38-16.15-10.29-26.31-10.29-5.02,0-9.82.97-14.23,2.7l-12.31-32.14c4.19-2.52,7-7.1,7-12.34,0-7.96-6.45-14.41-14.41-14.41s-14.41,6.45-14.41,14.41,6.45,14.41,14.41,14.41c.94,0,1.85-.1,2.74-.27l12.44,32.47c-11.53,6.39-19.46,18.47-20,32.46h-15.14c-.11-5.69-4.74-10.27-10.45-10.27S0,87.9,0,93.68s4.68,10.46,10.46,10.46c4.81,0,8.85-3.25,10.07-7.66h15.53c.59,15.38,10.12,28.47,23.55,34.2l-10.26,29.16c-.77-.13-1.55-.21-2.35-.21-7.96,0-14.41,6.45-14.41,14.41s6.45,14.41,14.41,14.41,14.41-6.45,14.41-14.41c0-5.39-2.96-10.08-7.34-12.55l10.26-29.16c3.34.94,6.86,1.45,10.49,1.45,13.86,0,26.02-7.28,32.88-18.21l25.05,14.36c-.47,1.19-.74,2.49-.74,3.85,0,5.78,4.69,10.46,10.46,10.46s10.46-4.68,10.46-10.46-4.68-10.46-10.46-10.46c-3.34,0-6.31,1.57-8.23,4.02l-25.05-14.36c2.82-5.38,4.42-11.49,4.42-17.99,0-9.48-3.4-18.15-9.04-24.89l32.31-30.78c2.39,1.77,5.34,2.82,8.54,2.82Z"/>
    </g>
  </g>
</svg>