<?xml version="1.0" encoding="UTF-8"?>
<svg id="Capa_2" xmlns="http://www.w3.org/2000/svg" viewBox="0 0 727.06 188.46">
  <defs>
    <style>
      .cls-1 {
        fill: #1186ef;
      }

      .cls-2 {
        fill: #fff;
      }
    </style>
  </defs>
  <g id="Capa_1-2" data-name="Capa_1">
    <g>
      <path class="cls-2" d="M220.54,147.83c-7.34,0-13.89-1.26-19.63-3.77-5.75-2.51-10.26-6.18-13.55-11.01-3.29-4.83-5.02-10.67-5.22-17.53h20.72c.1,3,.87,5.7,2.32,8.11,1.45,2.42,3.45,4.32,6.01,5.72,2.56,1.4,5.63,2.1,9.2,2.1,3.09,0,5.77-.51,8.04-1.52,2.27-1.01,4.06-2.44,5.36-4.27,1.3-1.83,1.96-4.01,1.96-6.52,0-2.9-.72-5.31-2.17-7.24-1.45-1.93-3.4-3.57-5.87-4.93-2.46-1.35-5.31-2.58-8.55-3.69-3.24-1.11-6.59-2.25-10.07-3.4-8.11-2.7-14.25-6.23-18.4-10.58-4.15-4.35-6.23-10.09-6.23-17.24,0-6.08,1.45-11.3,4.35-15.65,2.9-4.35,6.95-7.68,12.17-10s11.16-3.48,17.82-3.48,12.87,1.18,18.04,3.55c5.17,2.37,9.27,5.77,12.32,10.21,3.04,4.44,4.66,9.66,4.85,15.65h-21.01c-.1-2.22-.75-4.32-1.96-6.3-1.21-1.98-2.88-3.57-5-4.78-2.13-1.21-4.64-1.81-7.53-1.81-2.51-.1-4.81.29-6.88,1.16-2.08.87-3.69,2.15-4.85,3.84-1.16,1.69-1.74,3.79-1.74,6.3s.58,4.44,1.74,6.08c1.16,1.64,2.8,3.07,4.93,4.27,2.12,1.21,4.64,2.32,7.53,3.33,2.9,1.01,6.04,2.05,9.42,3.12,5.12,1.74,9.78,3.79,13.98,6.16,4.2,2.37,7.56,5.43,10.07,9.2,2.51,3.77,3.77,8.74,3.77,14.92,0,5.31-1.38,10.24-4.13,14.78-2.75,4.54-6.79,8.21-12.1,11.01-5.31,2.8-11.88,4.2-19.7,4.2Z"/>
      <path class="cls-2" d="M298.49,148.12c-7.05,0-13.35-1.62-18.91-4.85-5.56-3.23-9.95-7.73-13.18-13.47-3.24-5.75-4.85-12.34-4.85-19.78s1.62-14.32,4.85-20.07c3.24-5.75,7.65-10.24,13.26-13.47,5.6-3.24,11.93-4.85,18.98-4.85s13.33,1.62,18.83,4.85c5.51,3.24,9.87,7.7,13.11,13.4,3.24,5.7,4.85,12.37,4.85,19.99s-1.62,14.18-4.85,19.92c-3.24,5.75-7.63,10.24-13.18,13.47-5.56,3.24-11.86,4.85-18.91,4.85ZM298.49,131.17c3.09,0,5.92-.8,8.48-2.39,2.56-1.59,4.64-3.98,6.23-7.17s2.39-7.1,2.39-11.74-.77-8.67-2.32-11.81c-1.55-3.14-3.57-5.5-6.09-7.1-2.51-1.59-5.31-2.39-8.4-2.39s-6.08.8-8.69,2.39-4.69,3.96-6.23,7.1c-1.55,3.14-2.32,7.08-2.32,11.81s.75,8.55,2.25,11.74c1.5,3.19,3.55,5.58,6.16,7.17s5.46,2.39,8.55,2.39Z"/>
      <path class="cls-2" d="M383.82,73.37h-15.79v-6.67c0-2.9.67-4.95,2.03-6.16,1.35-1.21,3.57-1.81,6.67-1.81h5.94v-16.66h-8.98c-5.12,0-9.59.82-13.4,2.46-3.82,1.64-6.74,4.25-8.77,7.82-2.03,3.58-3.04,8.4-3.04,14.49v6.52h-10v16.37h10v56.65h19.56v-56.65h15.79v-16.37Z"/>
      <path class="cls-2" d="M435.7,73.36v16.38h-15.8v31.29c0,.21,0,.41.01.61v24.75h-19.56v-56.65h-12.61v-16.38h12.61v-.09l2.06-18.88c.14-.35.29-.69.45-1.02h17.04v19.99h15.8Z"/>
      <path class="cls-2" d="M564.27,73.36v16.38h-15.8v31.29c0,.21,0,.41.01.61v24.75h-19.56v-56.65h-12.61v-16.38h12.61v-.09l2.06-18.88c.14-.35.29-.69.45-1.02h17.04v19.99h15.8Z"/>
      <path class="cls-2" d="M442.88,146.39V42.07h19.56v104.32h-19.56Z"/>
      <path class="cls-2" d="M493.85,63.37c-3.57,0-6.47-1.04-8.69-3.12-2.22-2.08-3.33-4.71-3.33-7.9s1.11-5.82,3.33-7.9c2.22-2.08,5.12-3.11,8.69-3.11s6.5,1.04,8.77,3.11c2.27,2.08,3.4,4.71,3.4,7.9s-1.14,5.82-3.4,7.9c-2.27,2.08-5.19,3.12-8.77,3.12ZM484,146.39v-73.02h19.56v73.02h-19.56Z"/>
      <path class="cls-2" d="M574.81,146.39V42.07h19.56v42.02c2.41-3.77,5.65-6.79,9.71-9.06,4.06-2.27,8.69-3.41,13.91-3.41,6.08,0,11.2,1.28,15.36,3.84,4.15,2.56,7.29,6.28,9.42,11.16,2.12,4.88,3.19,10.84,3.19,17.89v41.87h-19.42v-39.99c0-5.89-1.21-10.41-3.62-13.55-2.42-3.14-6.18-4.71-11.3-4.71-3.29,0-6.23.77-8.84,2.32-2.61,1.55-4.66,3.77-6.16,6.67-1.5,2.9-2.25,6.47-2.25,10.72v38.54h-19.56Z"/>
      <path class="cls-2" d="M722.57,89.23c-2.99-5.36-7.2-9.63-12.6-12.82-5.41-3.19-11.74-4.78-18.98-4.78s-13.96,1.69-19.56,5.07c-5.6,3.38-9.97,7.97-13.11,13.76-3.14,5.8-4.71,12.51-4.71,20.14s1.57,13.84,4.71,19.49c3.14,5.65,7.53,10.07,13.18,13.26s12.15,4.78,19.49,4.78c5.7,0,10.84-1.04,15.43-3.11,4.59-2.08,8.5-4.97,11.74-8.69,3.24-3.72,5.48-7.85,6.74-12.39h-19.85c-1.26,2.51-3.02,4.52-5.29,6.01-2.27,1.5-5.24,2.25-8.91,2.25s-6.71-.82-9.42-2.46c-2.71-1.64-4.81-3.93-6.3-6.88-1.22-2.39-1.93-5.12-2.16-8.19h53.81c.09-1.25.17-2.49.22-3.7.05-1.21.07-2.29.07-3.26,0-6.95-1.5-13.11-4.49-18.47ZM673.36,102.63c.4-2.2,1.06-4.16,1.98-5.87,1.64-3.04,3.84-5.36,6.59-6.95s5.82-2.39,9.2-2.39c4.44,0,8.19,1.4,11.23,4.2,3.04,2.8,4.71,6.47,5,11.01h-34Z"/>
      <path class="cls-1" d="M145.43,42.14c7.96,0,14.41-6.45,14.41-14.41s-6.45-14.41-14.41-14.41-14.41,6.45-14.41,14.41c0,2.95.89,5.69,2.41,7.98l-32.3,30.77c-6.91-6.38-16.15-10.29-26.31-10.29-5.02,0-9.82.97-14.23,2.7l-12.31-32.14c4.19-2.52,7-7.1,7-12.34,0-7.96-6.45-14.41-14.41-14.41s-14.41,6.45-14.41,14.41,6.45,14.41,14.41,14.41c.94,0,1.85-.1,2.74-.27l12.44,32.47c-11.53,6.39-19.46,18.47-20,32.46h-15.14c-.11-5.69-4.74-10.27-10.45-10.27S0,87.9,0,93.68s4.68,10.46,10.46,10.46c4.81,0,8.85-3.25,10.07-7.66h15.53c.59,15.38,10.12,28.47,23.55,34.2l-10.26,29.16c-.77-.13-1.55-.21-2.35-.21-7.96,0-14.41,6.45-14.41,14.41s6.45,14.41,14.41,14.41,14.41-6.45,14.41-14.41c0-5.39-2.96-10.08-7.34-12.55l10.26-29.16c3.34.94,6.86,1.45,10.49,1.45,13.86,0,26.02-7.28,32.88-18.21l25.05,14.36c-.47,1.19-.74,2.49-.74,3.85,0,5.78,4.69,10.46,10.46,10.46s10.46-4.68,10.46-10.46-4.68-10.46-10.46-10.46c-3.34,0-6.31,1.57-8.23,4.02l-25.05-14.36c2.82-5.38,4.42-11.49,4.42-17.99,0-9.48-3.4-18.15-9.04-24.89l32.31-30.78c2.39,1.77,5.34,2.82,8.54,2.82Z"/>
    </g>
  </g>
</svg>